# xmcd CD database file
#
# Track frame offsets:
#	153
#	14392
#	29773
#	55384
#	75784
#	96969
#	113398
#	144811
#	160429
#	182836
#	201241
#	213451
#	233128
#	254572
#	273610
#
# Disc length: 3828 seconds
#
# Revision: 0
# Processed by: cddbd v1.5PL3 Copyright (c) Steve Scherf et al.
# Submitted via: CDex 1.50beta10
#
DISCID=d00ef20f
DTITLE=Luther "Snake" Johnson - Born In Georgia
DYEAR=2004
DGENRE=Blues
TTITLE0=Born In Georgia
TTITLE1=Rock Me Baby
TTITLE2=Woman Don't Lie
TTITLE3=Bright Light Big City
TTITLE4=Take Enough Of Him
TTITLE5=You Told Me You Love Me
TTITLE6=Am I Wrong For Loving You
TTITLE7=Walkin' Blues
TTITLE8=My Daddy Told Me
TTITLE9=Crawlin' King Snake
TTITLE10=Please Give Me That Love
TTITLE11=Hoochie Coochie Man
TTITLE12=Everyday I Have The Blues
TTITLE13=Somebody Loan Me A Dime
TTITLE14=Rock'N Roll Every Day
EXTD=YEAR: 2004
EXTT0=
EXTT1=
EXTT2=
EXTT3=
EXTT4=
EXTT5=
EXTT6=
EXTT7=
EXTT8=
EXTT9=
EXTT10=
EXTT11=
EXTT12=
EXTT13=
EXTT14=
PLAYORDER=
